<?xml version="1.0" standalone="no"?><!DOCTYPE svg PUBLIC "-//W3C//DTD SVG 1.1//EN" "http://www.w3.org/Graphics/SVG/1.1/DTD/svg11.dtd"><svg t="1556522463646" class="icon" style="" viewBox="0 0 1024 1024" version="1.1" xmlns="http://www.w3.org/2000/svg" p-id="3846" xmlns:xlink="http://www.w3.org/1999/xlink" width="32" height="32"><defs><style type="text/css"></style></defs><path d="M957 439.5l-98.1-283.3c-19.1-54.9-69.6-91.5-126.3-91.5l-449.7 0.4c-58 0-109.3 38.3-127.1 94.9L66.4 440.3c-1.2 3.4-1.7 7.2-1.7 11.1 0.4 71 37.3 120.4 103.5 139.1 12.8 3.8 26.9 6 42.2 6 31.9 0 67.9-11.1 102.3-45.1 29 28.1 63.4 42.1 99.4 42.1 26.9 0 63.4-8.5 96.5-42.5 34 31.9 68.7 45.9 104.3 42.1 33.1-3.4 65.8-19.1 98.5-47.2 45.6 40.8 93.2 56.1 140.8 44.7 39.8-9.3 90.7-40 106.8-134 0.5-5.6 0.1-11.6-2-17.1z m-120.9 84.2c-31.5 7.2-64.6-8.5-100.6-48.5-6.2-6.8-14.9-10.6-24-11.1h-0.4c-9.1 0-17.8 3.8-24 10.2-29 30.6-56.7 47.6-82 50.2-26.5 3-54.7-24.7-73.7-48.1-7-8.5-17.4-13.2-27.7-12.3-10.8 0.4-20.3 6.4-26.1 15.7-24.4 39.6-49.7 44.2-66.3 44.2h-0.4c-26.5 0-50.1-14.9-71.6-45.9-6.2-8.9-16.6-14.5-27.3-14.5-10.8 0-21.1 5.1-27.3 14.5-38.1 54.4-72.9 53.2-99 45.5-36.4-10.2-53-31-54.7-68.1l88.2-274.4c9.1-28.5 34.4-47.2 63.8-47.2l449.7-0.4c28.2 0 53.4 18.3 62.9 45.5l94.8 274.4c-11.6 54.1-36 66-54.3 70.3z m16.2 116.1c-18.6 0-33.5 15.3-33.5 34.5v147.6c0 37.9-30.2 68.9-67.1 68.9H271.4c-36.9 0-67.1-31-67.1-68.9V674.3c0-19.1-14.9-34.5-33.5-34.5s-33.5 15.3-33.5 34.5v147.6c0 75.7 60 137.4 133.7 137.4h480.7c73.7 0 133.7-61.7 133.7-137.4V674.3c0.4-19.2-14.5-34.5-33.1-34.5z" fill="#333333" p-id="3847"></path></svg>