<?xml version="1.0" standalone="no"?><!DOCTYPE svg PUBLIC "-//W3C//DTD SVG 1.1//EN" "http://www.w3.org/Graphics/SVG/1.1/DTD/svg11.dtd"><svg t="1556522499440" class="icon" style="" viewBox="0 0 1024 1024" version="1.1" xmlns="http://www.w3.org/2000/svg" p-id="4731" xmlns:xlink="http://www.w3.org/1999/xlink" width="32" height="32"><defs><style type="text/css"></style></defs><path d="M877.2 246.2H256.5V67.4l-15.6 1.3v-5.2h-161v31.6H214v151.2h-0.1v271.2c0 125.5 102.1 227.6 227.6 227.6h435.9c35.3 0 63.9-28.7 63.9-63.9v-371c-0.1-35.3-28.8-64-64.1-64z m22.4 434.9c0 12.3-10 22.4-22.4 22.4H441.4c-102.6 0-186-83.4-186-186v-197l1.2-0.2v-32.5h620.7c12.3 0 22.4 10 22.4 22.4v370.9z" fill="" p-id="4732"></path><path d="M776.5 350.5h31.2v249.4h-31.2z" fill="" p-id="4733"></path><path d="M792.3 654.6m-20.8 0a20.8 20.8 0 1 0 41.6 0 20.8 20.8 0 1 0-41.6 0Z" fill="" p-id="4734"></path><path d="M389 867.7m-24.2 0a24.2 24.2 0 1 0 48.4 0 24.2 24.2 0 1 0-48.4 0Z" fill="#FFFFFF" p-id="4735"></path><path d="M389 781.2c-47.7 0-86.5 38.8-86.5 86.5s38.8 86.5 86.5 86.5 86.5-38.8 86.5-86.5-38.8-86.5-86.5-86.5z m0 110.7c-13.3 0-24.2-10.8-24.2-24.2 0-13.3 10.8-24.2 24.2-24.2s24.2 10.8 24.2 24.2c0 13.4-10.9 24.2-24.2 24.2z" fill="" p-id="4736"></path><path d="M792.1 851.5c-13.3 0-24.2 10.8-24.2 24.2 0 13.3 10.8 24.2 24.2 24.2s24.2-10.8 24.2-24.2c0-13.4-10.9-24.2-24.2-24.2z" fill="#FFFFFF" p-id="4737"></path><path d="M792.1 789.1c-47.7 0-86.5 38.8-86.5 86.5s38.8 86.5 86.5 86.5 86.5-38.8 86.5-86.5-38.8-86.5-86.5-86.5z m0 110.7c-13.3 0-24.2-10.8-24.2-24.2 0-13.3 10.8-24.2 24.2-24.2s24.2 10.8 24.2 24.2c0 13.4-10.9 24.2-24.2 24.2z" fill="" p-id="4738"></path></svg>