<?xml version="1.0" standalone="no"?><!DOCTYPE svg PUBLIC "-//W3C//DTD SVG 1.1//EN" "http://www.w3.org/Graphics/SVG/1.1/DTD/svg11.dtd"><svg t="1556522237271" class="icon" style="" viewBox="0 0 1024 1024" version="1.1" xmlns="http://www.w3.org/2000/svg" p-id="2670" xmlns:xlink="http://www.w3.org/1999/xlink" width="32" height="32"><defs><style type="text/css"></style></defs><path d="M189.5 416c-5 0-9-4-9-9 0-93.9 76.4-170.3 170.3-170.3 5 0 9 4 9 9s-4 9-9 9c-84 0-152.4 68.4-152.4 152.4 0.1 4.9-3.9 8.9-8.9 8.9z" fill="#707070" p-id="2671"></path><path d="M512.2 909c-79.9 0-348-305-401-366.2-0.5-0.6-0.9-1.1-1.3-1.7-30-44.7-45.9-96.9-45.9-151 0-148.9 120.6-270 268.8-270 66.9 0 130 24.4 179.4 69 49.4-44.7 112.4-69 179.4-69 148.2 0 268.8 121.1 268.8 270 0 54.1-15.9 106.3-45.9 150.9-0.4 0.6-0.9 1.2-1.3 1.7-53 61.2-321.2 366.3-401 366.3zM139.1 520.2c150.4 173.6 330.9 353 373.1 353 42.2 0 222.7-179.3 373.1-353 25.6-38.5 39.2-83.4 39.2-130C924.5 261.1 820 156 691.6 156c-63.1 0-122.3 25.1-166.5 70.6-6.8 6.9-18.9 6.9-25.7 0-44.3-45.5-103.5-70.6-166.6-70.6-128.4 0-232.9 105-232.9 234.1 0 46.6 13.5 91.5 39.2 130.1z m760.5 10.9h0.2-0.2z" fill="#707070" p-id="2672"></path></svg>