<?xml version="1.0" standalone="no"?><!DOCTYPE svg PUBLIC "-//W3C//DTD SVG 1.1//EN" "http://www.w3.org/Graphics/SVG/1.1/DTD/svg11.dtd"><svg t="1556621512657" class="icon" style="" viewBox="0 0 1024 1024" version="1.1" xmlns="http://www.w3.org/2000/svg" p-id="3286" xmlns:xlink="http://www.w3.org/1999/xlink" width="32" height="32"><defs><style type="text/css"></style></defs><path d="M981.673521 312.399496c-25.782627-60.159463-62.737726-116.021821-109.146454-162.43055S770.25598 65.745699 709.237096 39.963072c-125.475451-53.284096-272.436425-53.284096-397.911876 0-60.159463 25.782627-116.021821 62.737726-162.43055 109.146454S65.530843 252.240034 39.748217 312.399496C13.96559 375.137222 0.214855 442.172052 0.214855 512.644566s13.750734 137.507344 39.533361 200.245069c25.782627 60.159463 62.737726 116.021821 109.146454 162.43055 46.408728 46.408728 102.271087 83.363827 162.43055 109.146454 62.737726 25.782627 130.631977 39.533361 200.245069 39.533361s134.929081-13.750734 200.245069-39.533361c60.159463-25.782627 116.021821-62.737726 162.43055-109.146454 46.408728-46.408728 83.363827-102.271087 109.146454-162.43055 25.782627-62.737726 39.533361-130.631977 39.533361-200.245069S1007.456148 375.137222 981.673521 312.399496zM936.983634 693.982375c-23.204364 55.862358-55.862358 104.84935-99.692824 148.679815-42.111624 42.111624-92.817457 76.48846-148.679815 99.692824-114.302979 48.986991-246.653798 48.986991-362.675619 0-55.862358-23.204364-104.84935-58.440621-148.679815-99.692824-42.111624-42.111624-76.48846-92.817457-99.692824-148.679815-23.204364-58.440621-36.955099-118.600084-36.955099-181.337809 0-62.737726 12.031893-122.897188 36.955099-181.337809 23.204364-55.862358 55.862358-104.84935 99.692824-148.679815 42.111624-42.111624 92.817457-76.48846 148.679815-99.692824C383.516576 58.870332 444.53546 45.119597 507.273185 45.119597s122.897188 12.031893 181.337809 36.955099c55.862358 23.204364 104.84935 55.862358 148.679815 99.692824 42.111624 42.111624 76.48846 92.817457 99.692824 148.679815 23.204364 58.440621 36.955099 118.600084 36.955099 181.337809C974.798154 575.382291 962.766261 635.541754 936.983634 693.982375zM753.926983 300.367604 718.690726 268.569031 509.851448 479.986572 293.277381 263.412505 260.619387 296.070499 477.193454 512.644566 264.916492 724.062107 297.574486 756.720101 509.851448 545.30256 725.566093 761.017205 758.224087 728.359211 541.650021 512.644566Z" p-id="3287" fill="#8a8a8a"></path></svg>