<?xml version="1.0" standalone="no"?><!DOCTYPE svg PUBLIC "-//W3C//DTD SVG 1.1//EN" "http://www.w3.org/Graphics/SVG/1.1/DTD/svg11.dtd"><svg t="1555182367656" class="icon" style="" viewBox="0 0 1024 1024" version="1.1" xmlns="http://www.w3.org/2000/svg" p-id="1618" xmlns:xlink="http://www.w3.org/1999/xlink" width="16" height="16"><defs><style type="text/css"></style></defs><path d="M923.8 917.6l-181.5-57.8c-3.4-1.1-7.1-1.1-10.5 0l-214.5 67.6c-5.2 1.6-4.8 2-10.5 0l-214.5-67.5c-3.4-1.1-7.1-1.1-10.5 0l-181.5 57.7c-14.2 4.5-27.1-9.7-21.4-23.4l110.4-263.5c1.9-4.5 5.5-8 10.1-9.6l115.8-42.4c3.3-1.2 6.8-1.4 10.2-0.6l181.8 44.5c2.7 0.7 5.6 0.7 8.3 0L698.8 578c3.4-0.8 6.9-0.6 10.1 0.6l115.8 42.5c4.6 1.7 8.2 5.2 10.1 9.6l110.4 263.5c5.7 13.8-7.2 28-21.4 23.4z" fill="#694B4B" p-id="1619"></path><path d="M287.1 858.3l-186.8 59.4c-14.1 4.5-27.1-9.6-21.3-23.3l110.4-263.6c1.9-4.5 5.5-8 10.1-9.6l117.4-43.1c1.5-0.6 3.1 0.7 2.9 2.3l-32.7 277.9zM737.2 859.1l-223.3 69.4c-0.7 0.2-1.6 0.3-1.8 0.3v-305L704 576.9l33.2 282.2z" fill="#B5E66E" p-id="1620"></path><path d="M790 350.3c0 124.3-170.4 329.7-242.5 411-17 19.2-46.2 19.2-63.2 0-72.1-81.3-242.5-286.7-242.5-411 0-157.7 122.7-285.5 274.1-285.5S790 192.6 790 350.3z" fill="#F44D4C" p-id="1621"></path><path d="M753 333.9c0 115.9-155.4 330.3-225.4 406.1-16.5 17.9-45.3 18.3-61.4 0-70.5-80.4-238.4-290.3-238.4-406.1 0-147 112.1-266.1 259.1-266.1S753 186.9 753 333.9z" fill="#FF5F5F" p-id="1622"></path><path d="M491.9 316.6m-109.7 0a109.7 109.7 0 1 0 219.4 0 109.7 109.7 0 1 0-219.4 0Z" fill="#FFFFFF" p-id="1623"></path></svg>